<?xml version="1.0" encoding="UTF-8"?>
<svg id="Layer_1" data-name="Layer 1" xmlns="http://www.w3.org/2000/svg" viewBox="0 0 616.42 165.21">
  <defs>
    <style>
      .cls-1 {
        fill: #59efd2;
      }

      .cls-1, .cls-2 {
        stroke: #000;
        stroke-linecap: round;
        stroke-linejoin: round;
        stroke-width: 5px;
      }
    </style>
  </defs>
  <path class="cls-2" d="M157.59,22.8l64.86,7.89c40.47,4.92,57.25,26.34,53.71,55.47-1.98,16.26-8.75,27.72-19.33,34.3l-.05.38,12.57,41.83-72.2-8.78-18.06-42.75h0l8.23,41.55-44.86-5.46,15.13-124.43ZM213.39,89.46c6.81.83,9.99-1.66,10.66-7.15.46-3.78-.93-8.17-9.06-9.16l-8.89-1.08-1.98,16.26,9.27,1.13Z"/>
  <path class="cls-2" d="M136.6,85.43c13.31,4.83,20.74,15.78,21.64,29.08,1.42,20.91-10.63,40.43-45.98,42.83l-79.07,5.36-22.22-12.94,13.74-112.13,54.19-18.11c63.55-4.09,67.36,25.34,68.45,41.5.55,8.18-2.4,18.11-10.8,23.84l.04.57ZM92.04,81.58c4.18-.28,5.7-3.25,5.45-6.86-.26-3.8-2.36-6.72-6.36-6.44l-10.07.68.9,13.31,10.07-.68ZM83.9,110.77l.9,13.3,12.16-.82c3.61-.24,5.52-3.05,5.26-6.85-.28-4.18-2.55-6.7-6.36-6.44l-11.97.81Z"/>
  <path class="cls-2" d="M378.5,27.54l-6.33,69.05c-3.6,39.27-31.31,55.67-71.34,52-40.03-3.67-64.3-24.83-60.7-64.1L278.21,7.5l22.13,39.33-5.95,38.42c-.94,10.25,2.59,15.54,10.75,16.29,8.16.75,12.59-3.82,13.53-14.06l5.95-64.88,53.88,4.94Z"/>
  <path class="cls-2" d="M411.68,158.46l-56.73,1.26-22.22-10.29,19.3-112.38,32.63-14.21,28.15,52.71,22.29-40.55,51.44-1.26,2.92,122.67-58.24,1.23-25.53-28.71,5.98,29.53Z"/>
  <path class="cls-2" d="M613.92,81.5c0,37.72-27.62,65.72-73.34,65.72s-73.34-26.1-73.34-65.72c0-36.39,29.72-64.2,73.34-64.2s73.34,27.81,73.34,64.2ZM535.15,91.88c0,10.1,6.67,15.81,15.43,15.81s15.43-5.71,15.43-15.81c0-8.76-6.48-15.05-15.43-15.05s-15.43,6.29-15.43,15.05Z"/>
  <path class="cls-1" d="M135.37,9.86l64.86,7.89c40.47,4.92,57.25,26.34,53.71,55.47-1.98,16.26-8.75,27.72-19.33,34.3l-.05.38,12.57,41.83-58.62-7.13-9.41-31.47-1.51-.18-3.63,29.88-53.71-6.53,15.13-124.43ZM191.17,76.52c6.81.83,9.99-1.66,10.66-7.15.46-3.78-.93-8.17-9.06-9.16l-8.89-1.08-1.98,16.26,9.27,1.13Z"/>
  <path class="cls-1" d="M114.38,72.5c13.31,4.83,20.74,15.78,21.64,29.08,1.42,20.91-10.63,40.43-45.98,42.83l-79.07,5.36L2.5,24.71l76.41-5.18c32.5-2.2,45.14,12.41,46.23,28.56.55,8.18-2.4,18.11-10.8,23.84l.04.57ZM69.82,68.65c4.18-.28,5.7-3.25,5.45-6.86-.26-3.8-2.36-6.72-6.36-6.44l-10.07.68.9,13.31,10.07-.68ZM61.68,97.84l.9,13.3,12.16-.82c3.61-.24,5.52-3.05,5.26-6.85-.28-4.18-2.55-6.7-6.36-6.44l-11.97.81Z"/>
  <path class="cls-1" d="M356.28,14.6l-6.33,69.05c-3.6,39.27-31.31,55.67-71.34,52-40.03-3.67-64.3-24.83-60.7-64.1l6.33-69.05,53.88,4.94-5.95,64.88c-.94,10.25,2.59,15.54,10.75,16.29s12.59-3.82,13.53-14.06l5.95-64.88,53.88,4.94Z"/>
  <path class="cls-1" d="M418.18,22.06l54.09-1.26,2.92,125.32-52.94,1.23-37.19-42.2-.38.2s1.4,11.02,1.56,18.07l.58,24.76-54.09,1.26-2.92-125.32,54.85-1.28,35.03,39.77.38-.2s-1.19-10.07-1.36-17.31l-.54-23.04Z"/>
  <path class="cls-1" d="M594.35,68.57c0,37.72-27.62,65.72-73.34,65.72s-73.34-26.1-73.34-65.72c0-36.39,29.72-64.2,73.34-64.2s73.34,27.81,73.34,64.2ZM505.58,68.95c0,10.1,6.67,15.81,15.43,15.81s15.43-5.71,15.43-15.81c0-8.76-6.48-15.05-15.43-15.05s-15.43,6.29-15.43,15.05Z"/>
</svg>